<?xml version="1.0" encoding="UTF-8" standalone="no"?>
<!-- Created with Inkscape (http://www.inkscape.org/) -->

<svg
   xmlns:dc="http://purl.org/dc/elements/1.1/"
   xmlns:cc="http://creativecommons.org/ns#"
   xmlns:rdf="http://www.w3.org/1999/02/22-rdf-syntax-ns#"
   xmlns:svg="http://www.w3.org/2000/svg"
   xmlns="http://www.w3.org/2000/svg"
   xmlns:sodipodi="http://sodipodi.sourceforge.net/DTD/sodipodi-0.dtd"
   xmlns:inkscape="http://www.inkscape.org/namespaces/inkscape"
   version="1.1"
   id="svg3713"
   xml:space="preserve"
   width="755.90533"
   height="302.36267"
   viewBox="0 0 755.90533 302.36267"
   sodipodi:docname="Lienbacher Logo.svg"
   inkscape:version="0.92.4 (5da689c313, 2019-01-14)"><metadata
     id="metadata3719"><rdf:RDF><cc:Work
         rdf:about=""><dc:format>image/svg+xml</dc:format><dc:type
           rdf:resource="http://purl.org/dc/dcmitype/StillImage" /><dc:title></dc:title></cc:Work></rdf:RDF></metadata><defs
     id="defs3717"><clipPath
       clipPathUnits="userSpaceOnUse"
       id="clipPath3729"><path
         d="M 0,226.772 H 566.929 V 0 H 0 Z"
         id="path3727"
         inkscape:connector-curvature="0" /></clipPath><linearGradient
       x1="0"
       y1="0"
       x2="1"
       y2="0"
       gradientUnits="userSpaceOnUse"
       gradientTransform="matrix(426.13873,0,0,-426.13873,99.630775,118.62536)"
       spreadMethod="pad"
       id="linearGradient3765"><stop
         style="stop-opacity:1;stop-color:#231f20"
         offset="0"
         id="stop3759" /><stop
         style="stop-opacity:1;stop-color:#fff200"
         offset="0.20091254"
         id="stop3761" /><stop
         style="stop-opacity:1;stop-color:#fff200"
         offset="1"
         id="stop3763" /></linearGradient><clipPath
       clipPathUnits="userSpaceOnUse"
       id="clipPath3775"><path
         d="M 0,226.772 H 566.929 V 0 H 0 Z"
         id="path3773"
         inkscape:connector-curvature="0" /></clipPath></defs><sodipodi:namedview
     pagecolor="#ffffff"
     bordercolor="#666666"
     borderopacity="1"
     objecttolerance="10"
     gridtolerance="10"
     guidetolerance="10"
     inkscape:pageopacity="0"
     inkscape:pageshadow="2"
     inkscape:window-width="1366"
     inkscape:window-height="706"
     id="namedview3715"
     showgrid="false"
     inkscape:zoom="1.2091461"
     inkscape:cx="377.95267"
     inkscape:cy="151.18134"
     inkscape:window-x="-8"
     inkscape:window-y="-8"
     inkscape:window-maximized="1"
     inkscape:current-layer="g3721" /><g
     id="g3721"
     inkscape:groupmode="layer"
     inkscape:label="Lienbacher Logo"
     transform="matrix(1.3333333,0,0,-1.3333333,0,302.36267)"><g
       id="g3723"><g
         id="g3725"
         clip-path="url(#clipPath3729)"><g
           id="g3731"
           transform="translate(439.8945,153.9017)"><path
             d="m 0,0 c -7.471,-6.562 -18.864,-5.863 -25.456,1.646 -6.556,7.501 -5.828,18.88 1.666,25.437 7.463,6.596 18.862,5.863 25.432,-1.618 C 8.245,17.969 7.488,6.566 0,0 m 25.873,10.287 c 0.12,1.469 0.17,2.958 0.118,4.457 -0.041,1.457 -0.18,2.897 -0.392,4.307 l -7.503,1.243 -2.544,7.099 5,5.732 c -1.517,2.523 -3.322,4.846 -5.361,6.935 l -6.803,-3.415 -6.237,4.241 0.674,7.587 c -2.587,1.091 -5.322,1.911 -8.162,2.403 l -3.534,-6.751 -7.544,-0.177 -3.874,6.565 c -2.9,-0.661 -5.672,-1.645 -8.272,-2.923 l 1.112,-7.535 -5.995,-4.586 -6.987,3.015 c -1.918,-2.194 -3.59,-4.613 -4.964,-7.221 l 5.317,-5.435 -2.142,-7.229 -7.425,-1.673 c -0.133,-1.495 -0.19,-3.024 -0.143,-4.577 0.053,-1.418 0.181,-2.808 0.373,-4.179 l 7.506,-1.265 2.52,-7.107 -5.033,-5.718 c 1.522,-2.525 3.318,-4.873 5.358,-6.968 l 6.817,3.394 6.225,-4.259 -0.707,-7.589 c 2.67,-1.13 5.486,-1.98 8.413,-2.481 l 3.514,6.768 7.543,0.208 3.887,-6.555 c 2.898,0.673 5.665,1.672 8.264,2.956 l -1.133,7.53 5.974,4.613 6.994,-2.997 c 1.918,2.21 3.585,4.633 4.949,7.238 l -5.348,5.414 2.115,7.25 z"
             style="fill:#918f90;fill-opacity:1;fill-rule:nonzero;stroke:none"
             id="path3733"
             inkscape:connector-curvature="0" /></g><g
           id="g3735"
           transform="translate(494.7891,128.6517)"><path
             d="m 0,0 c -5.773,-5.072 -14.579,-4.531 -19.674,1.272 -5.066,5.797 -4.505,14.592 1.287,19.66 5.768,5.096 14.578,4.53 19.656,-1.251 C 6.372,13.887 5.787,5.075 0,0 m 19.996,7.95 c 0.092,1.136 0.131,2.287 0.091,3.445 -0.031,1.126 -0.14,2.239 -0.303,3.329 l -5.8,0.961 -1.965,5.486 3.864,4.43 c -1.172,1.95 -2.567,3.745 -4.143,5.359 l -5.258,-2.639 -4.82,3.278 0.522,5.863 c -1.999,0.843 -4.114,1.477 -6.309,1.857 l -2.731,-5.217 -5.831,-0.137 -2.994,5.074 c -2.241,-0.511 -4.382,-1.271 -6.392,-2.259 l 0.858,-5.824 -4.633,-3.544 -5.399,2.331 c -1.482,-1.697 -2.774,-3.566 -3.836,-5.581 l 4.108,-4.201 -1.655,-5.586 -5.738,-1.293 c -0.103,-1.156 -0.147,-2.338 -0.111,-3.538 0.041,-1.096 0.14,-2.17 0.289,-3.23 l 5.801,-0.977 1.948,-5.493 -3.89,-4.419 c 1.176,-1.951 2.563,-3.766 4.141,-5.385 l 5.268,2.623 4.811,-3.292 -0.546,-5.865 c 2.063,-0.873 4.239,-1.53 6.502,-1.917 l 2.716,5.23 5.829,0.161 3.004,-5.065 c 2.24,0.52 4.378,1.292 6.386,2.284 l -0.876,5.82 4.618,3.564 5.405,-2.316 c 1.482,1.708 2.771,3.581 3.825,5.594 l -4.133,4.184 1.635,5.603 z"
             style="fill:#918f90;fill-opacity:1;fill-rule:nonzero;stroke:none"
             id="path3737"
             inkscape:connector-curvature="0" /></g><g
           id="g3739"
           transform="translate(457.6816,94.699)"><path
             d="m 0,0 c -4.449,-3.909 -11.235,-3.492 -15.161,0.98 -3.905,4.467 -3.472,11.246 0.992,15.151 4.444,3.927 11.234,3.491 15.147,-0.964 C 4.91,10.702 4.46,3.91 0,0 m 15.409,6.126 c 0.071,0.876 0.102,1.763 0.07,2.655 -0.024,0.867 -0.107,1.726 -0.233,2.566 l -4.469,0.74 -1.514,4.227 2.977,3.415 c -0.903,1.502 -1.978,2.885 -3.192,4.13 L 4.996,21.825 1.281,24.351 1.683,28.87 c -1.541,0.649 -3.17,1.138 -4.862,1.431 l -2.105,-4.021 -4.492,-0.105 -2.308,3.909 c -1.728,-0.393 -3.378,-0.979 -4.927,-1.74 l 0.662,-4.488 -3.57,-2.731 -4.161,1.796 c -1.142,-1.307 -2.138,-2.748 -2.956,-4.301 l 3.166,-3.237 -1.276,-4.306 -4.421,-0.996 c -0.08,-0.891 -0.115,-1.802 -0.086,-2.727 0.032,-0.844 0.107,-1.671 0.221,-2.488 l 4.472,-0.754 1.5,-4.232 -2.997,-3.406 c 0.906,-1.504 1.976,-2.902 3.191,-4.15 l 4.06,2.022 3.707,-2.537 -0.42,-4.52 c 1.59,-0.673 3.267,-1.18 5.01,-1.477 l 2.094,4.03 4.492,0.124 2.315,-3.904 c 1.726,0.401 3.373,0.996 4.921,1.76 l -0.675,4.486 3.559,2.747 4.165,-1.785 c 1.142,1.316 2.136,2.759 2.947,4.31 l -3.184,3.225 1.259,4.318 z"
             style="fill:#918f90;fill-opacity:1;fill-rule:nonzero;stroke:none"
             id="path3741"
             inkscape:connector-curvature="0" /></g><g
           id="g3743"
           transform="translate(77.4702,147.032)"><path
             d="m 0,0 c 0,2.522 0.627,4.426 1.883,5.715 1.304,1.4 2.801,2.101 4.491,2.101 1.786,0 3.356,-0.701 4.709,-2.101 C 12.386,4.426 13.038,2.522 13.038,0 v -83.957 c 0,-4.314 -0.387,-8.853 -1.159,-13.614 -0.966,-4.706 -3.212,-8.993 -6.736,-12.86 -3.236,-3.865 -8.572,-6.049 -16.008,-6.554 -3.574,0 -7.123,0.56 -10.648,1.681 -3.67,1.231 -6.784,2.912 -9.343,5.042 -2.463,1.96 -3.694,4.173 -3.694,6.64 0,4.257 1.713,6.387 5.142,6.387 1.352,0 2.535,-0.225 3.549,-0.672 0.386,-0.281 1.074,-0.799 2.065,-1.556 0.989,-0.756 1.653,-1.274 1.992,-1.555 1.159,-0.839 2.535,-1.512 4.129,-2.016 1.738,-0.617 3.813,-0.925 6.229,-0.925 3.089,0 5.819,1.315 8.185,3.95 2.173,2.576 3.259,6.892 3.259,12.943 z"
             style="fill:#231f20;fill-opacity:1;fill-rule:nonzero;stroke:none"
             id="path3745"
             inkscape:connector-curvature="0" /></g></g></g><g
       id="g3747"><g
         id="g3749"><g
           id="g3755"><g
             id="g3757"><path
               d="m 101.559,177.489 c -1.286,-1.269 -1.928,-3.254 -1.928,-5.956 v 0 -104.822 c 0,-3.53 0.642,-5.847 1.928,-6.949 v 0 c 1.235,-1.38 2.67,-2.068 4.302,-2.068 v 0 h 419.908 l -0.048,13.898 H 112.833 v 99.278 c 0,5.793 -2.127,8.688 -6.379,8.688 v 0 c -1.929,0 -3.56,-0.69 -4.895,-2.069"
               style="fill:url(#linearGradient3765);stroke:none"
               id="path3767"
               inkscape:connector-curvature="0" /></g></g></g></g><g
       id="g3769"><g
         id="g3771"
         clip-path="url(#clipPath3775)"><path
           d="m 134.597,110.666 h 3.988 V 88.732 h -3.988 z m 4.442,6.162 c 0.045,-1.359 -0.952,-2.447 -2.539,-2.447 -1.404,0 -2.401,1.088 -2.401,2.447 0,1.405 1.042,2.493 2.492,2.493 1.496,0 2.448,-1.088 2.448,-2.493"
           style="fill:#231f20;fill-opacity:1;fill-rule:nonzero;stroke:none"
           id="path3777"
           inkscape:connector-curvature="0" /><g
           id="g3779"
           transform="translate(170.4448,101.8289)"><path
             d="m 0,0 c 0.045,2.538 -1.042,6.48 -5.528,6.48 -4.034,0 -5.801,-3.716 -6.118,-6.48 z m -11.692,-2.854 c 0.091,-5.394 3.535,-7.614 7.523,-7.614 2.855,0 4.577,0.499 6.072,1.133 l 0.68,-2.855 c -1.405,-0.635 -3.807,-1.36 -7.296,-1.36 -6.752,0 -10.785,4.442 -10.785,11.058 0,6.615 3.897,11.827 10.286,11.827 7.16,0 9.064,-6.299 9.064,-10.332 0,-0.815 -0.091,-1.45 -0.137,-1.857 z"
             style="fill:#231f20;fill-opacity:1;fill-rule:nonzero;stroke:none"
             id="path3781"
             inkscape:connector-curvature="0" /></g><g
           id="g3783"
           transform="translate(190.5693,104.7293)"><path
             d="M 0,0 C 0,2.265 -0.045,4.123 -0.181,5.937 H 3.354 L 3.581,2.311 h 0.09 c 1.087,2.085 3.625,4.124 7.25,4.124 3.037,0 7.749,-1.814 7.749,-9.335 v -13.097 h -3.987 v 12.643 c 0,3.536 -1.315,6.48 -5.076,6.48 C 6.979,3.126 4.939,1.268 4.26,-0.952 4.078,-1.45 3.988,-2.131 3.988,-2.81 V -15.997 H 0 Z"
             style="fill:#231f20;fill-opacity:1;fill-rule:nonzero;stroke:none"
             id="path3785"
             inkscape:connector-curvature="0" /></g><g
           id="g3787"
           transform="translate(230.9951,97.5242)"><path
             d="m 0,0 c 0,-0.499 0.091,-0.997 0.181,-1.45 0.771,-2.764 3.082,-4.668 5.983,-4.668 4.168,0 6.66,3.398 6.66,8.429 0,4.395 -2.265,8.156 -6.525,8.156 C 3.58,10.467 1.042,8.609 0.227,5.573 0.136,5.12 0,4.576 0,3.942 Z m -4.124,-8.792 c 0.091,1.496 0.182,3.716 0.182,5.664 V 23.381 H 0 V 9.606 h 0.091 c 1.405,2.448 3.942,4.034 7.477,4.034 5.437,0 9.289,-4.533 9.244,-11.193 0,-7.84 -4.939,-11.737 -9.833,-11.737 -3.172,0 -5.71,1.223 -7.342,4.123 h -0.136 l -0.18,-3.625 z"
             style="fill:#231f20;fill-opacity:1;fill-rule:nonzero;stroke:none"
             id="path3789"
             inkscape:connector-curvature="0" /></g><g
           id="g3791"
           transform="translate(275.7261,99.9256)"><path
             d="m 0,0 c -4.35,0.091 -9.29,-0.681 -9.29,-4.939 0,-2.584 1.723,-3.807 3.762,-3.807 2.855,0 4.667,1.812 5.302,3.67 C -0.091,-4.668 0,-4.214 0,-3.807 Z M 0.589,-11.193 0.272,-8.429 H 0.136 c -1.224,-1.721 -3.579,-3.262 -6.706,-3.262 -4.441,0 -6.707,3.127 -6.707,6.298 0,5.302 4.713,8.203 13.186,8.157 v 0.453 c 0,1.812 -0.498,5.076 -4.984,5.076 -2.039,0 -4.169,-0.635 -5.71,-1.632 l -0.906,2.629 c 1.812,1.178 4.441,1.948 7.205,1.948 6.707,0 8.338,-4.577 8.338,-8.972 v -8.203 c 0,-1.903 0.09,-3.76 0.363,-5.256 z"
             style="fill:#231f20;fill-opacity:1;fill-rule:nonzero;stroke:none"
             id="path3793"
             inkscape:connector-curvature="0" /></g><g
           id="g3795"
           transform="translate(312.9795,89.5477)"><path
             d="m 0,0 c -1.042,-0.544 -3.353,-1.269 -6.299,-1.269 -6.615,0 -10.921,4.488 -10.921,11.194 0,6.752 4.622,11.646 11.783,11.646 2.355,0 4.44,-0.59 5.528,-1.134 l -0.907,-3.082 c -0.952,0.544 -2.446,1.043 -4.621,1.043 -5.031,0 -7.75,-3.715 -7.75,-8.293 0,-5.075 3.263,-8.202 7.613,-8.202 2.266,0 3.762,0.59 4.894,1.088 z"
             style="fill:#231f20;fill-opacity:1;fill-rule:nonzero;stroke:none"
             id="path3797"
             inkscape:connector-curvature="0" /></g><g
           id="g3799"
           transform="translate(328.9805,120.9056)"><path
             d="m 0,0 h 3.988 v -13.684 h 0.091 c 0.634,1.132 1.631,2.129 2.855,2.809 1.177,0.68 2.583,1.133 4.078,1.133 2.945,0 7.659,-1.813 7.659,-9.381 v -13.05 h -3.988 v 12.597 c 0,3.535 -1.315,6.526 -5.076,6.526 -2.583,0 -4.622,-1.813 -5.347,-3.988 -0.226,-0.544 -0.272,-1.132 -0.272,-1.903 V -32.173 H 0 Z"
             style="fill:#231f20;fill-opacity:1;fill-rule:nonzero;stroke:none"
             id="path3801"
             inkscape:connector-curvature="0" /></g><g
           id="g3803"
           transform="translate(379.376,101.8289)"><path
             d="m 0,0 c 0.046,2.538 -1.041,6.48 -5.527,6.48 -4.034,0 -5.801,-3.716 -6.119,-6.48 z m -11.69,-2.854 c 0.089,-5.394 3.534,-7.614 7.522,-7.614 2.855,0 4.577,0.499 6.071,1.133 l 0.681,-2.855 c -1.405,-0.635 -3.807,-1.36 -7.296,-1.36 -6.752,0 -10.786,4.442 -10.786,11.058 0,6.615 3.897,11.827 10.287,11.827 7.16,0 9.063,-6.299 9.063,-10.332 0,-0.815 -0.089,-1.45 -0.135,-1.857 z"
             style="fill:#231f20;fill-opacity:1;fill-rule:nonzero;stroke:none"
             id="path3805"
             inkscape:connector-curvature="0" /></g><g
           id="g3807"
           transform="translate(399.5,103.8231)"><path
             d="M 0,0 C 0,2.582 -0.045,4.803 -0.18,6.843 H 3.309 L 3.444,2.538 h 0.182 c 0.997,2.944 3.398,4.803 6.072,4.803 0.453,0 0.77,-0.045 1.133,-0.136 V 3.443 C 10.424,3.533 10.015,3.579 9.472,3.579 6.661,3.579 4.667,1.45 4.125,-1.541 4.034,-2.085 3.943,-2.72 3.943,-3.399 V -15.091 H 0 Z"
             style="fill:#231f20;fill-opacity:1;fill-rule:nonzero;stroke:none"
             id="path3809"
             inkscape:connector-curvature="0" /></g><g
           id="g3811"
           transform="translate(136.127,30.5672)"><path
             d="m 0,0 c 0.888,-0.546 2.186,-1.002 3.552,-1.002 2.026,0 3.21,1.07 3.21,2.619 0,1.434 -0.82,2.253 -2.891,3.05 -2.505,0.888 -4.053,2.187 -4.053,4.35 0,2.389 1.98,4.166 4.963,4.166 1.571,0 2.71,-0.365 3.393,-0.751 L 7.627,10.814 c -0.501,0.273 -1.525,0.729 -2.914,0.729 -2.094,0 -2.892,-1.253 -2.892,-2.3 0,-1.433 0.934,-2.139 3.051,-2.959 2.596,-1.002 3.916,-2.254 3.916,-4.508 0,-2.368 -1.753,-4.417 -5.373,-4.417 -1.479,0 -3.096,0.433 -3.915,0.979 z"
             style="fill:#231f20;fill-opacity:1;fill-rule:nonzero;stroke:none"
             id="path3813"
             inkscape:connector-curvature="0" /></g><g
           id="g3815"
           transform="translate(154.9136,34.7332)"><path
             d="M 0,0 C 0.023,1.275 -0.524,3.256 -2.778,3.256 -4.804,3.256 -5.692,1.389 -5.851,0 Z m -5.874,-1.434 c 0.046,-2.709 1.776,-3.825 3.779,-3.825 1.435,0 2.3,0.251 3.051,0.569 l 0.341,-1.434 c -0.705,-0.319 -1.912,-0.683 -3.665,-0.683 -3.392,0 -5.418,2.231 -5.418,5.555 0,3.324 1.958,5.942 5.168,5.942 3.597,0 4.553,-3.164 4.553,-5.191 0,-0.409 -0.046,-0.728 -0.068,-0.933 z"
             style="fill:#231f20;fill-opacity:1;fill-rule:nonzero;stroke:none"
             id="path3817"
             inkscape:connector-curvature="0" /></g><g
           id="g3819"
           transform="translate(159.5615,35.7352)"><path
             d="M 0,0 C 0,1.298 -0.023,2.413 -0.091,3.438 H 1.662 L 1.73,1.275 H 1.821 C 2.322,2.755 3.528,3.688 4.872,3.688 5.1,3.688 5.259,3.665 5.441,3.62 V 1.73 C 5.236,1.776 5.032,1.799 4.758,1.799 3.347,1.799 2.345,0.729 2.071,-0.773 2.026,-1.047 1.98,-1.366 1.98,-1.707 V -7.581 H 0 Z"
             style="fill:#231f20;fill-opacity:1;fill-rule:nonzero;stroke:none"
             id="path3821"
             inkscape:connector-curvature="0" /></g><g
           id="g3823"
           transform="translate(168.5796,39.1736)"><path
             d="m 0,0 2.163,-6.193 c 0.364,-1.001 0.66,-1.912 0.888,-2.824 h 0.068 c 0.25,0.912 0.569,1.823 0.933,2.824 L 6.192,0 H 8.287 L 3.961,-11.02 H 2.048 L -2.141,0 Z"
             style="fill:#231f20;fill-opacity:1;fill-rule:nonzero;stroke:none"
             id="path3825"
             inkscape:connector-curvature="0" /></g><path
           d="m 178.987,39.174 h 2.003 v -11.02 h -2.003 z m 2.231,3.095 c 0.023,-0.682 -0.478,-1.228 -1.275,-1.228 -0.705,0 -1.206,0.546 -1.206,1.228 0,0.706 0.523,1.252 1.252,1.252 0.751,0 1.229,-0.546 1.229,-1.252"
           style="fill:#231f20;fill-opacity:1;fill-rule:nonzero;stroke:none"
           id="path3827"
           inkscape:connector-curvature="0" /><g
           id="g3829"
           transform="translate(192.3984,28.5643)"><path
             d="m 0,0 c -0.523,-0.274 -1.685,-0.638 -3.165,-0.638 -3.324,0 -5.486,2.254 -5.486,5.624 0,3.392 2.322,5.85 5.919,5.85 1.184,0 2.232,-0.296 2.777,-0.569 L -0.409,8.719 c -0.478,0.273 -1.23,0.524 -2.323,0.524 -2.527,0 -3.893,-1.867 -3.893,-4.166 0,-2.55 1.64,-4.121 3.825,-4.121 1.138,0 1.889,0.296 2.459,0.546 z"
             style="fill:#231f20;fill-opacity:1;fill-rule:nonzero;stroke:none"
             id="path3831"
             inkscape:connector-curvature="0" /></g><g
           id="g3833"
           transform="translate(201.8276,34.7332)"><path
             d="M 0,0 C 0.023,1.275 -0.524,3.256 -2.778,3.256 -4.804,3.256 -5.692,1.389 -5.851,0 Z m -5.875,-1.434 c 0.047,-2.709 1.777,-3.825 3.78,-3.825 1.434,0 2.3,0.251 3.051,0.569 l 0.341,-1.434 c -0.705,-0.319 -1.912,-0.683 -3.665,-0.683 -3.392,0 -5.418,2.231 -5.418,5.555 0,3.324 1.958,5.942 5.168,5.942 3.597,0 4.553,-3.164 4.553,-5.191 0,-0.409 -0.046,-0.728 -0.068,-0.933 z"
             style="fill:#231f20;fill-opacity:1;fill-rule:nonzero;stroke:none"
             id="path3835"
             inkscape:connector-curvature="0" /></g><path
           d="M 216.623,33.572 H 211 v 1.48 h 5.623 z"
           style="fill:#231f20;fill-opacity:1;fill-rule:nonzero;stroke:none"
           id="path3837"
           inkscape:connector-curvature="0" /><g
           id="g3839"
           transform="translate(228.1392,28.1541)"><path
             d="m 0,0 -5.009,15.345 h 2.14 L -0.478,7.786 C 0.183,5.714 0.751,3.847 1.162,2.049 H 1.207 C 1.64,3.825 2.277,5.76 2.96,7.763 l 2.595,7.582 H 7.673 L 2.186,0 Z"
             style="fill:#231f20;fill-opacity:1;fill-rule:nonzero;stroke:none"
             id="path3841"
             inkscape:connector-curvature="0" /></g><g
           id="g3843"
           transform="translate(243.8755,34.7332)"><path
             d="M 0,0 C 0.022,1.275 -0.524,3.256 -2.778,3.256 -4.804,3.256 -5.692,1.389 -5.851,0 Z m -5.875,-1.434 c 0.047,-2.709 1.777,-3.825 3.78,-3.825 1.434,0 2.3,0.251 3.051,0.569 l 0.341,-1.434 c -0.705,-0.319 -1.912,-0.683 -3.665,-0.683 -3.392,0 -5.418,2.231 -5.418,5.555 0,3.324 1.958,5.942 5.168,5.942 3.597,0 4.553,-3.164 4.553,-5.191 0,-0.409 -0.046,-0.728 -0.069,-0.933 z"
             style="fill:#231f20;fill-opacity:1;fill-rule:nonzero;stroke:none"
             id="path3845"
             inkscape:connector-curvature="0" /></g><g
           id="g3847"
           transform="translate(248.5234,35.7352)"><path
             d="M 0,0 C 0,1.298 -0.023,2.413 -0.092,3.438 H 1.662 L 1.73,1.275 H 1.821 C 2.322,2.755 3.528,3.688 4.872,3.688 5.1,3.688 5.259,3.665 5.441,3.62 V 1.73 C 5.236,1.776 5.031,1.799 4.758,1.799 3.347,1.799 2.345,0.729 2.071,-0.773 2.026,-1.047 1.98,-1.366 1.98,-1.707 V -7.581 H 0 Z"
             style="fill:#231f20;fill-opacity:1;fill-rule:nonzero;stroke:none"
             id="path3849"
             inkscape:connector-curvature="0" /></g><g
           id="g3851"
           transform="translate(258.2695,34.119)"><path
             d="M 0,0 H 0.045 C 0.319,0.388 0.706,0.865 1.024,1.252 L 4.258,5.055 H 6.67 L 2.414,0.523 7.263,-5.965 H 4.827 L 1.024,-0.683 0,-1.821 V -5.965 H -1.98 V 10.199 H 0 Z"
             style="fill:#231f20;fill-opacity:1;fill-rule:nonzero;stroke:none"
             id="path3853"
             inkscape:connector-curvature="0" /></g><g
           id="g3855"
           transform="translate(273.4136,33.7772)"><path
             d="m 0,0 c -2.186,0.046 -4.667,-0.341 -4.667,-2.481 0,-1.298 0.865,-1.913 1.889,-1.913 1.434,0 2.345,0.911 2.664,1.844 C -0.045,-2.345 0,-2.117 0,-1.912 Z m 0.296,-5.623 -0.16,1.389 H 0.068 c -0.615,-0.865 -1.798,-1.64 -3.37,-1.64 -2.231,0 -3.369,1.571 -3.369,3.165 0,2.664 2.368,4.121 6.626,4.098 v 0.228 c 0,0.91 -0.251,2.549 -2.505,2.549 -1.025,0 -2.095,-0.318 -2.869,-0.819 l -0.455,1.32 c 0.911,0.592 2.231,0.979 3.62,0.979 3.369,0 4.189,-2.299 4.189,-4.508 v -4.12 c 0,-0.957 0.045,-1.89 0.182,-2.641 z"
             style="fill:#231f20;fill-opacity:1;fill-rule:nonzero;stroke:none"
             id="path3857"
             inkscape:connector-curvature="0" /></g><g
           id="g3859"
           transform="translate(288.0322,31.159)"><path
             d="m 0,0 c 0,-1.138 0.023,-2.14 0.093,-3.005 h -1.777 l -0.114,1.798 h -0.046 c -0.522,-0.887 -1.683,-2.049 -3.641,-2.049 -1.731,0 -3.804,0.957 -3.804,4.827 v 6.444 h 2.004 V 1.912 c 0,-2.094 0.638,-3.506 2.459,-3.506 1.344,0 2.277,0.934 2.641,1.823 0.115,0.295 0.182,0.66 0.182,1.023 V 8.015 H 0 Z"
             style="fill:#231f20;fill-opacity:1;fill-rule:nonzero;stroke:none"
             id="path3861"
             inkscape:connector-curvature="0" /></g><g
           id="g3863"
           transform="translate(291.793,28.1541)"><path
             d="M 0,0 V 9.493 H -1.548 V 11.02 H 0 v 0.522 c 0,1.548 0.342,2.96 1.274,3.849 0.753,0.727 1.754,1.023 2.688,1.023 0.706,0 1.32,-0.159 1.707,-0.317 L 5.396,14.547 C 5.1,14.685 4.689,14.798 4.121,14.798 2.414,14.798 1.98,13.295 1.98,11.611 V 11.02 H 4.645 V 9.493 H 1.98 L 1.98,0 Z"
             style="fill:#231f20;fill-opacity:1;fill-rule:nonzero;stroke:none"
             id="path3865"
             inkscape:connector-curvature="0" /></g><path
           d="m 308.613,33.572 h -5.623 v 1.48 h 5.623 z"
           style="fill:#231f20;fill-opacity:1;fill-rule:nonzero;stroke:none"
           id="path3867"
           inkscape:connector-curvature="0" /><g
           id="g3869"
           transform="translate(318.7422,36.3045)"><path
             d="m 0,0 h 2.026 c 2.118,0 3.46,1.161 3.46,2.914 0,1.981 -1.434,2.846 -3.529,2.869 C 1.001,5.783 0.318,5.692 0,5.601 Z m -1.98,6.99 c 1.001,0.204 2.435,0.318 3.801,0.318 2.117,0 3.484,-0.387 4.44,-1.252 0.773,-0.683 1.207,-1.73 1.207,-2.914 0,-2.026 -1.276,-3.371 -2.892,-3.916 V -0.842 C 5.759,-1.252 6.465,-2.346 6.829,-3.938 7.33,-6.078 7.695,-7.559 8.014,-8.15 H 5.964 C 5.714,-7.719 5.372,-6.397 4.94,-4.485 4.485,-2.367 3.665,-1.571 1.866,-1.502 H 0 V -8.15 h -1.98 z"
             style="fill:#231f20;fill-opacity:1;fill-rule:nonzero;stroke:none"
             id="path3871"
             inkscape:connector-curvature="0" /></g><g
           id="g3873"
           transform="translate(336.2529,34.7332)"><path
             d="M 0,0 C 0.022,1.275 -0.523,3.256 -2.777,3.256 -4.804,3.256 -5.691,1.389 -5.852,0 Z m -5.873,-1.434 c 0.045,-2.709 1.774,-3.825 3.779,-3.825 1.434,0 2.299,0.251 3.051,0.569 l 0.341,-1.434 c -0.706,-0.319 -1.912,-0.683 -3.665,-0.683 -3.394,0 -5.419,2.231 -5.419,5.555 0,3.324 1.958,5.942 5.168,5.942 3.597,0 4.554,-3.164 4.554,-5.191 0,-0.409 -0.046,-0.728 -0.069,-0.933 z"
             style="fill:#231f20;fill-opacity:1;fill-rule:nonzero;stroke:none"
             id="path3875"
             inkscape:connector-curvature="0" /></g><g
           id="g3877"
           transform="translate(342.8809,32.6395)"><path
             d="m 0,0 c 0,-0.296 0.047,-0.569 0.092,-0.82 0.363,-1.388 1.57,-2.345 3.005,-2.345 2.117,0 3.346,1.73 3.346,4.258 0,2.208 -1.161,4.096 -3.277,4.096 C 1.8,5.189 0.524,4.212 0.138,2.709 0.068,2.459 0,2.163 0,1.889 Z m -1.98,2.937 c 0,1.411 -0.045,2.55 -0.091,3.597 h 1.799 l 0.09,-1.89 h 0.045 c 0.821,1.343 2.118,2.14 3.916,2.14 2.664,0 4.667,-2.254 4.667,-5.6 0,-3.962 -2.413,-5.92 -5.008,-5.92 -1.457,0 -2.732,0.637 -3.391,1.731 H 0 v -5.988 h -1.98 z"
             style="fill:#231f20;fill-opacity:1;fill-rule:nonzero;stroke:none"
             id="path3879"
             inkscape:connector-curvature="0" /></g><g
           id="g3881"
           transform="translate(359.8916,33.7772)"><path
             d="m 0,0 c -2.186,0.046 -4.667,-0.341 -4.667,-2.481 0,-1.298 0.865,-1.913 1.891,-1.913 1.433,0 2.343,0.911 2.663,1.844 C -0.046,-2.345 0,-2.117 0,-1.912 Z m 0.296,-5.623 -0.158,1.389 h -0.07 c -0.614,-0.865 -1.797,-1.64 -3.369,-1.64 -2.231,0 -3.37,1.571 -3.37,3.165 0,2.664 2.368,4.121 6.625,4.098 v 0.228 c 0,0.91 -0.25,2.549 -2.504,2.549 -1.023,0 -2.094,-0.318 -2.868,-0.819 l -0.456,1.32 c 0.911,0.592 2.231,0.979 3.62,0.979 3.369,0 4.19,-2.299 4.19,-4.508 v -4.12 c 0,-0.957 0.045,-1.89 0.181,-2.641 z"
             style="fill:#231f20;fill-opacity:1;fill-rule:nonzero;stroke:none"
             id="path3883"
             inkscape:connector-curvature="0" /></g><g
           id="g3885"
           transform="translate(365.291,35.7352)"><path
             d="M 0,0 C 0,1.298 -0.023,2.413 -0.091,3.438 H 1.662 L 1.729,1.275 h 0.093 c 0.5,1.48 1.707,2.413 3.05,2.413 0.228,0 0.387,-0.023 0.569,-0.068 V 1.73 C 5.236,1.776 5.032,1.799 4.758,1.799 3.347,1.799 2.345,0.729 2.072,-0.773 2.026,-1.047 1.981,-1.366 1.981,-1.707 v -5.874 l -1.981,0 z"
             style="fill:#231f20;fill-opacity:1;fill-rule:nonzero;stroke:none"
             id="path3887"
             inkscape:connector-curvature="0" /></g><g
           id="g3889"
           transform="translate(378.6572,33.7772)"><path
             d="m 0,0 c -2.185,0.046 -4.667,-0.341 -4.667,-2.481 0,-1.298 0.865,-1.913 1.891,-1.913 1.433,0 2.344,0.911 2.664,1.844 C -0.045,-2.345 0,-2.117 0,-1.912 Z M 0.296,-5.623 0.138,-4.234 H 0.069 c -0.615,-0.865 -1.798,-1.64 -3.37,-1.64 -2.231,0 -3.369,1.571 -3.369,3.165 0,2.664 2.368,4.121 6.625,4.098 v 0.228 c 0,0.91 -0.251,2.549 -2.504,2.549 -1.024,0 -2.095,-0.318 -2.869,-0.819 l -0.455,1.32 c 0.91,0.592 2.231,0.979 3.62,0.979 3.369,0 4.19,-2.299 4.19,-4.508 v -4.12 c 0,-0.957 0.044,-1.89 0.181,-2.641 z"
             style="fill:#231f20;fill-opacity:1;fill-rule:nonzero;stroke:none"
             id="path3891"
             inkscape:connector-curvature="0" /></g><g
           id="g3893"
           transform="translate(386.3799,42.3377)"><path
             d="M 0,0 V -3.164 H 2.868 V -4.69 H 0 v -5.943 c 0,-1.364 0.387,-2.139 1.502,-2.139 0.524,0 0.911,0.069 1.161,0.136 l 0.092,-1.503 c -0.387,-0.159 -1.002,-0.272 -1.776,-0.272 -0.934,0 -1.685,0.296 -2.164,0.843 -0.568,0.59 -0.773,1.571 -0.773,2.868 v 6.01 h -1.708 v 1.526 h 1.708 v 2.641 z"
             style="fill:#231f20;fill-opacity:1;fill-rule:nonzero;stroke:none"
             id="path3895"
             inkscape:connector-curvature="0" /></g><g
           id="g3897"
           transform="translate(400.9531,31.159)"><path
             d="m 0,0 c 0,-1.138 0.022,-2.14 0.092,-3.005 h -1.777 l -0.114,1.798 h -0.045 c -0.523,-0.887 -1.684,-2.049 -3.642,-2.049 -1.731,0 -3.803,0.957 -3.803,4.827 v 6.444 h 2.003 V 1.912 c 0,-2.094 0.639,-3.506 2.459,-3.506 1.345,0 2.277,0.934 2.641,1.823 0.115,0.295 0.182,0.66 0.182,1.023 V 8.015 H 0 Z"
             style="fill:#231f20;fill-opacity:1;fill-rule:nonzero;stroke:none"
             id="path3899"
             inkscape:connector-curvature="0" /></g><g
           id="g3901"
           transform="translate(404.5088,35.7352)"><path
             d="M 0,0 C 0,1.298 -0.023,2.413 -0.091,3.438 H 1.662 L 1.729,1.275 h 0.092 c 0.501,1.48 1.708,2.413 3.051,2.413 0.227,0 0.387,-0.023 0.569,-0.068 V 1.73 C 5.236,1.776 5.031,1.799 4.758,1.799 3.346,1.799 2.345,0.729 2.072,-0.773 2.026,-1.047 1.979,-1.366 1.979,-1.707 v -5.874 l -1.979,0 z"
             style="fill:#231f20;fill-opacity:1;fill-rule:nonzero;stroke:none"
             id="path3903"
             inkscape:connector-curvature="0" /></g></g></g></g></svg>